<?xml version="1.0" encoding="utf-8"?><svg viewBox="0 0 112 112" xmlns="http://www.w3.org/2000/svg" xmlns:xlink="http://www.w3.org/1999/xlink"><style>:root>svg{display:none}:root>svg:target{display:block}</style><svg fill="none" viewBox="0 0 112 112" id="buttons" xmlns="http://www.w3.org/2000/svg"><g clip-path="url(#aclip0)"><path d="M50.386 107.812c-1.585-.171-2.142-.426-2.27-.932l-2.328.126c.34 1.297 1.63 1.975 4.45 2.279 2.922.316 4.58-.284 4.724-1.621.127-1.177-.834-1.934-3.293-2.291l-2.334-.344c-.846-.125-1.072-.264-1.041-.547.037-.34.71-.416 2.6-.212 1.382.149 2.06.451 2.182 1.014l2.407-.118c-.376-1.392-1.607-2.087-4.45-2.393-3.306-.357-4.975.242-5.135 1.725-.122 1.132.77 1.779 3.125 2.147l2.324.331.332.055c.759.133.986.259.959.509-.038.351-.678.442-2.252.272zm-5.604-5.804l-2.267-.797-.79 2.246c-.448 1.279-1.694 1.698-3.339 1.121-1.16-.408-1.57-1.132-1.23-2.099l.985-2.804-2.267-.797-1.144 3.256c-.638 1.816.147 3.19 2.307 3.949 1.397.491 2.781.398 3.828-.176l-1.182 3.364 2.268.796 2.831-8.059zm-14.428-6.646c-2.786-1.817-4.953-1.83-6.104-.065-1.139 1.746-.247 3.755 2.52 5.56 2.757 1.798 4.974 1.817 6.113.071 1.14-1.745.228-3.767-2.529-5.566zm-.958 1.47c1.574 1.026 2.005 1.865 1.427 2.752-.579.888-1.521.831-3.095-.196-1.574-1.027-1.996-1.86-1.418-2.747.58-.887 1.512-.837 3.086.19zm-5.96-6.857l-1.387-1.587-4.478 1.055 1.652-4.288-1.38-1.578-6.777 1.765 1.634 1.87 4.02-1.2-1.524 4.055 1.447 1.655 4.19-1.09-1.701 3.937 1.716 1.964 2.588-6.558zm-8.101-9.637l-1.11-2.132-1.93 1.004c-1.171.61-2.347.028-3.189-1.589a4.638 4.638 0 01-.425-1.114l-2.017.96c.037.122.122.335.19.466.716 1.374 1.907 2.256 3.194 2.485l-1.285.862 1.015 1.95 5.557-2.892zm-4.537-11.474c-.833-2.901-1.783-4.062-3.179-4.218l.262 2.437c.483.074.9.737 1.33 2.237.447 1.554.357 2.48-.282 2.937L6.82 64.91c-.221.016-.4.056-.673.135-1.894.544-2.49 2.718-1.631 5.706.884 3.076 2.624 4.555 4.562 3.999 1.992-.573 2.624-2.746 1.721-5.887zm-4.765 1.44c-.412-1.434-.363-2.254.237-2.723l1.435 4.992c-.736-.085-1.244-.78-1.672-2.269zm3.021-12.272c-.137-3.015-.791-4.365-2.113-4.84l-.31 2.43c.452.185.703.926.774 2.485.073 1.616-.229 2.496-.956 2.792L6.1 53.264a3.059 3.059 0 00-.685-.026c-1.969.09-3.053 2.066-2.912 5.172.146 3.198 1.495 5.04 3.51 4.948 2.07-.094 3.19-2.06 3.04-5.326zm-4.969.295c-.067-1.49.17-2.277.863-2.593l.236 5.188c-.696-.253-1.028-1.048-1.099-2.595zm4.971-9.082l-8.485-.99-.278 2.387 8.484.99.28-2.387zm-.614-14.566l.18-.388c.554-1.147.938-1.513 1.41-1.481l.601-2.253c-1.339-.078-2.383.939-3.547 3.525-1.205 2.68-1.148 4.442.078 4.993 1.08.486 2.097-.193 3.199-2.42l1.05-2.113c.382-.765.584-.936.843-.82.312.14.176.804-.604 2.539-.57 1.267-1.068 1.817-1.641 1.76l-.634 2.325c1.44.073 2.482-.882 3.655-3.49 1.365-3.032 1.312-4.804-.048-5.417-1.04-.467-1.93.182-3.01 2.306l-1.036 2.107-.154.299c-.363.68-.552.857-.782.754-.322-.145-.21-.782.44-2.226zm7.244-3.519l1.458-1.91-1.893-1.444c-1.077-.823-1.091-2.137-.034-3.523.746-.977 1.56-1.144 2.376-.522l2.363 1.804 1.458-1.91-2.744-2.095c-1.53-1.167-3.08-.845-4.468.975-.898 1.177-1.238 2.522-1.015 3.695l-2.834-2.163-1.458 1.91 6.79 5.183zm10.763-11.68c2.583-2.094 3.26-4.153 1.932-5.79-1.313-1.619-3.499-1.386-6.064.695-2.557 2.073-3.255 4.179-1.942 5.798 1.313 1.618 3.517 1.37 6.074-.703zm-1.105-1.362c-1.46 1.184-2.39 1.338-3.058.515-.667-.823-.324-1.702 1.135-2.886 1.46-1.184 2.382-1.33 3.05-.507.667.822.333 1.694-1.127 2.878zm8.372-3.575l1.937-.83.376-4.586 3.57 2.893 1.926-.826.41-6.992-2.282.98-.098 4.193-3.388-2.699-2.02.866-.253 4.323-3.223-2.832-2.397 1.028 5.442 4.482zm11.648-4.729l2.37-.394-.355-2.146c-.217-1.303.701-2.24 2.499-2.54.427-.07.85-.094 1.19-.059l-.286-2.215a3.414 3.414 0 00-.502.037c-1.528.254-2.737 1.113-3.353 2.266l-.42-1.489-2.17.36 1.027 6.18zm12.329-.776c3.017.098 4.413-.45 4.99-1.73l-2.4-.5c-.218.438-.977.63-2.536.58-1.617-.053-2.471-.423-2.709-1.171l7.639.248a3.07 3.07 0 00.079-.681c.064-1.97-1.822-3.205-4.93-3.306-3.199-.103-5.14 1.099-5.206 3.113-.067 2.072 1.806 3.341 5.073 3.447zm.093-4.977c1.492.049 2.257.347 2.518 1.062l-5.19-.169c.306-.673 1.124-.943 2.672-.893zm10.745 6.646c2.912.795 4.397.587 5.256-.525L71.568 9.14c-.314.374-1.097.385-2.602-.026-1.56-.426-2.305-.984-2.363-1.767l7.373 2.013c.1-.196.16-.37.235-.644.519-1.9-1.029-3.54-4.028-4.359-3.088-.843-5.256-.125-5.787 1.82-.546 2 .982 3.669 4.135 4.53zm1.245-4.82c1.44.394 2.115.861 2.204 1.618l-5.01-1.369c.454-.584 1.312-.657 2.806-.249zm7.126 7.535l3.573-7.76-2.183-1.004-3.573 7.76 2.183 1.004zm14.02 3.9l.314.291c.92.88 1.15 1.358.975 1.797l1.958 1.265c.486-1.25-.16-2.556-2.263-4.459-2.179-1.971-3.872-2.46-4.774-1.463-.795.879-.462 2.055 1.318 3.789l1.687 1.65c.61.598.712.843.52 1.054-.228.253-.818-.08-2.228-1.356-1.03-.933-1.401-1.575-1.17-2.103l-2.017-1.318c-.513 1.348.075 2.633 2.195 4.55 2.466 2.232 4.168 2.728 5.17 1.621.764-.844.42-1.892-1.268-3.573l-1.686-1.633-.237-.24c-.535-.553-.646-.788-.477-.975.237-.262.808.04 1.982 1.103zm1.125 7.98l1.371 1.974 1.955-1.358c1.113-.773 2.369-.384 3.363 1.047.702 1.01.61 1.837-.231 2.422l-2.441 1.696 1.371 1.974 2.834-1.97c1.581-1.098 1.75-2.672.443-4.552-.845-1.216-2.022-1.951-3.206-2.099l2.927-2.034-1.371-1.974-7.015 4.875zm7.812 13.845c1.195 3.104 2.944 4.383 4.911 3.626 1.945-.75 2.398-2.901 1.211-5.984-1.183-3.071-2.97-4.385-4.915-3.636-1.945.75-2.39 2.922-1.207 5.994zm1.637-.63c-.676-1.754-.534-2.687.454-3.068.989-.38 1.719.217 2.394 1.97.676 1.755.53 2.677-.458 3.058-.989.38-1.715-.207-2.39-1.96zm.807 9.044l.191 2.099 4.244 1.776-3.856 2.5.19 2.087 6.522 2.553-.225-2.472-3.957-1.39 3.614-2.388-.199-2.189-4.031-1.578 3.689-2.188-.235-2.597-5.947 3.788zm.905 12.558l-.35 2.377 2.153.317c1.307.192 1.919 1.353 1.654 3.156a4.65 4.65 0 01-.308 1.152l2.197.404c.041-.12.096-.343.118-.49.225-1.532-.223-2.945-1.132-3.884l1.546.054.32-2.174-6.198-.912zm-3.047 11.955c-1.025 2.84-.936 4.337.104 5.281l1.216-2.128c-.348-.344-.296-1.124.233-2.592.549-1.521 1.165-2.22 1.95-2.215l-2.595 7.19c.188.115.356.188.624.285 1.853.669 3.61-.744 4.666-3.668 1.086-3.01.543-5.23-1.353-5.914-1.95-.703-3.735.687-4.845 3.761zm4.705 1.626c-.507 1.403-1.027 2.039-1.788 2.067l1.763-4.885c.547.5.551 1.36.025 2.818zm-9.634 8.165c-1.657 2.523-1.918 4-1.127 5.16l1.678-1.787c-.26-.416-.027-1.163.83-2.467.887-1.352 1.647-1.888 2.41-1.7l-4.195 6.388c.156.157.302.266.54.422 1.648 1.082 3.685.117 5.391-2.482 1.757-2.676 1.744-4.96.059-6.066-1.733-1.138-3.792-.201-5.586 2.532zm4.198 2.674c-.82 1.248-1.473 1.745-2.22 1.595l2.851-4.341c.415.613.219 1.451-.631 2.746zm-9.372 4.457l1.629-1.767 6.283 5.788-1.629 1.767-6.282-5.788z" fill="#fff"/></g><circle cx="56" cy="56" r="3.797" fill="#000"/><defs><clipPath id="aclip0"><path fill="#fff" transform="translate(0 1.898)" d="M0 0h110.102v108.203H0z"/></clipPath></defs></svg></svg>