<svg width="112" height="112" viewBox="0 0 112 112" fill="none" xmlns="http://www.w3.org/2000/svg">
<g clip-path="url(#clip0)">
<path d="M50.3861 107.812C48.8008 107.641 48.244 107.386 48.1154 106.88L45.7876 107.006C46.1288 108.303 47.4189 108.981 50.2386 109.285C53.1602 109.601 54.8173 109.001 54.9616 107.664C55.0887 106.487 54.1279 105.73 51.669 105.373L49.3347 105.029C48.4891 104.904 48.2635 104.765 48.294 104.482C48.3307 104.142 49.0034 104.066 50.8945 104.27C52.276 104.419 52.9537 104.721 53.0762 105.284L55.4833 105.166C55.1066 103.774 53.8755 103.079 51.0332 102.773C47.7266 102.416 46.0581 103.015 45.898 104.498C45.7757 105.63 46.6683 106.277 49.0228 106.645L51.347 106.976L51.6793 107.031C52.4377 107.164 52.665 107.29 52.638 107.54C52.6001 107.891 51.9602 107.982 50.3861 107.812ZM44.7823 102.008L42.515 101.211L41.7259 103.457C41.2766 104.736 40.0306 105.155 38.3865 104.578C37.226 104.17 36.8162 103.446 37.156 102.479L38.1414 99.6746L35.8741 98.8779L34.73 102.134C34.092 103.95 34.8767 105.324 37.0366 106.083C38.4336 106.574 39.8183 106.481 40.865 105.907L39.6833 109.271L41.9506 110.067L44.7823 102.008ZM30.354 95.3621C27.5684 93.5451 25.4011 93.532 24.2499 95.2968C23.1111 97.0426 24.0032 99.0523 26.7697 100.857C29.5266 102.655 31.7445 102.674 32.8833 100.928C34.0221 99.1827 33.111 97.1605 30.354 95.3621ZM29.3957 96.8312C30.9697 97.858 31.4015 98.6972 30.8227 99.5844C30.244 100.472 29.302 100.415 27.728 99.3879C26.1539 98.3611 25.7318 97.5281 26.3105 96.641C26.8892 95.7538 27.8217 95.8045 29.3957 96.8312ZM23.4358 89.9745L22.049 88.3881L17.5708 89.4433L19.2231 85.1551L17.8439 83.5772L11.0659 85.3416L12.7 87.2111L16.7197 86.012L15.1962 90.0667L16.6429 91.7218L20.8328 90.6311L19.1315 94.5689L20.848 96.5327L23.4358 89.9745ZM15.3347 80.3379L14.2254 78.206L12.2956 79.2102C11.1235 79.8201 9.94752 79.238 9.10629 77.6214C8.9065 77.2375 8.75238 76.8426 8.68073 76.5075L6.6636 77.4673C6.70123 77.589 6.78618 77.8016 6.85453 77.9329C7.56957 79.307 8.76063 80.1895 10.0481 80.4183L8.76298 81.2796L9.77771 83.2296L15.3347 80.3379ZM10.7983 68.8637C9.96471 65.9628 9.01484 64.8018 7.61905 64.6459L7.88092 67.083C8.36447 67.1574 8.78008 67.8201 9.21105 69.3198C9.65775 70.8743 9.56842 71.8006 8.92923 72.2568L6.81843 64.9115C6.59785 64.9275 6.41956 64.9669 6.14589 65.0455C4.25209 65.5898 3.65621 67.7638 4.515 70.7523C5.39896 73.8283 7.1394 75.3073 9.07698 74.7505C11.0693 74.1779 11.7012 72.0054 10.7983 68.8637ZM6.03346 70.3041C5.62136 68.87 5.67018 68.0501 6.27023 67.5814L7.7047 72.5732C6.96925 72.4883 6.46128 71.7928 6.03346 70.3041ZM9.05449 58.0322C8.91718 55.017 8.26283 53.6672 6.94139 53.1915L6.63024 55.6228C7.08331 55.8074 7.33369 56.5485 7.40467 58.1073C7.47825 59.723 7.17628 60.6032 6.44863 60.8986L6.10097 53.264C5.88271 53.2283 5.70014 53.2252 5.41569 53.2382C3.44729 53.3278 2.36292 55.304 2.50436 58.4102C2.64996 61.6075 3.99945 63.4501 6.01336 63.3584C8.08416 63.2641 9.20319 61.2977 9.05449 58.0322ZM4.08539 58.3269C4.01752 56.8363 4.25536 56.0502 4.94784 55.7336L5.18411 60.922C4.48847 60.6686 4.15586 59.8743 4.08539 58.3269ZM9.05611 49.2449L0.571339 48.2545L0.292725 50.6416L8.7775 51.6319L9.05611 49.2449ZM8.44151 34.6793L8.6222 34.2907C9.17565 33.1437 9.5602 32.778 10.032 32.8095L10.633 30.557C9.29416 30.4793 8.24993 31.4958 7.08649 34.0822C5.88099 36.7622 5.93785 38.5237 7.16356 39.0751C8.24384 39.561 9.26111 38.8821 10.3628 36.6551L11.4131 34.5423C11.7947 33.7772 11.9967 33.6058 12.2564 33.7226C12.568 33.8628 12.432 34.526 11.6517 36.2607C11.0817 37.528 10.5842 38.0785 10.0109 38.0204L9.37713 40.3456C10.8178 40.4191 11.8594 39.4639 13.0322 36.8567C14.3966 33.8236 14.3444 32.0516 12.9836 31.4395C11.9449 30.9723 11.0538 31.6206 9.9734 33.7448L8.93816 35.8519L8.78362 36.151C8.42148 36.8306 8.23161 37.0078 8.00248 36.9047C7.68047 36.7598 7.79204 36.1231 8.44151 34.6793ZM15.6858 31.1602L17.1437 29.2497L15.2514 27.8056C14.1739 26.9833 14.1598 25.6688 15.217 24.2834C15.9633 23.3056 16.7779 23.1392 17.5928 23.7611L19.956 25.5646L21.414 23.6541L18.6705 21.5604C17.1403 20.3927 15.5908 20.7146 14.2019 22.5345C13.3037 23.7116 12.9644 25.0574 13.1869 26.2302L10.3529 24.0674L8.89494 25.9779L15.6858 31.1602ZM26.4488 19.4805C29.032 17.3856 29.7085 15.3266 28.3813 13.69C27.0685 12.0711 24.882 12.3044 22.3165 14.3848C19.7599 16.4581 19.0623 18.5636 20.3752 20.1825C21.688 21.8014 23.8921 21.5537 26.4488 19.4805ZM25.344 18.1181C23.8843 19.3018 22.9532 19.4556 22.286 18.6329C21.6188 17.8102 21.9617 16.9309 23.4213 15.7472C24.881 14.5635 25.8033 14.4168 26.4705 15.2396C27.1376 16.0623 26.8037 16.9344 25.344 18.1181ZM33.7162 14.5432L35.6527 13.7127L36.0286 9.12724L39.5991 12.0203L41.5252 11.1943L41.9349 4.2025L39.6529 5.18112L39.5551 9.37469L36.1671 6.67599L34.1468 7.54238L33.8935 11.8646L30.6714 9.03276L28.2743 10.0608L33.7162 14.5432ZM45.3642 9.81408L47.7349 9.4203L47.3785 7.27425C47.162 5.97088 48.08 5.03328 49.8778 4.73469C50.3047 4.66377 50.7279 4.63966 51.0687 4.67543L50.7816 2.46013C50.6543 2.45819 50.4258 2.47304 50.2797 2.4973C48.7517 2.75111 47.5434 3.6099 46.9267 4.763L46.5063 3.27415L44.3377 3.63433L45.3642 9.81408ZM57.693 9.03815C60.7097 9.13608 62.1064 8.58884 62.6836 7.30845L60.2839 6.8089C60.0645 7.24622 59.3062 7.43812 57.7466 7.38749C56.1301 7.33502 55.276 6.96542 55.0382 6.21697L62.6768 6.46494C62.7293 6.25012 62.7466 6.06835 62.7559 5.78376C62.8198 3.81435 60.934 2.57936 57.8262 2.47848C54.6273 2.37463 52.6852 3.57652 52.6198 5.59146C52.5525 7.66332 54.4259 8.93209 57.693 9.03815ZM57.7862 4.0612C59.2775 4.10961 60.0427 4.40795 60.3044 5.12299L55.1134 4.95447C55.4201 4.28068 56.238 4.01094 57.7862 4.0612ZM68.531 10.7069C71.4427 11.5021 72.9282 11.2939 73.7867 10.1824L71.5684 9.13964C71.2536 9.51413 70.4714 9.52483 68.9661 9.11372C67.4059 8.68759 66.6609 8.12991 66.6032 7.3467L73.9758 9.36028C74.0768 9.16352 74.1358 8.99073 74.2108 8.71604C74.7299 6.81522 73.1821 5.17637 70.1826 4.35714C67.0951 3.5139 64.9271 4.23235 64.396 6.17713C63.8498 8.17683 65.3776 9.84564 68.531 10.7069ZM69.7765 5.88739C71.2158 6.2805 71.8909 6.74826 71.9796 7.5045L66.9693 6.13611C67.424 5.55188 68.2822 5.47927 69.7765 5.88739ZM76.902 13.4223L80.4746 5.6629L78.2916 4.6578L74.719 12.4172L76.902 13.4223ZM90.9213 17.3218L91.2355 17.6133C92.1565 18.4928 92.3861 18.9712 92.2111 19.4104L94.1693 20.6754C94.6552 19.4254 94.0093 18.119 91.9063 16.2162C89.7273 14.2446 88.0337 13.7567 87.1319 14.7533C86.3372 15.6317 86.6702 16.8085 88.4502 18.542L90.1373 20.1914C90.7479 20.7899 90.8488 21.0348 90.6578 21.246C90.4285 21.4993 89.8393 21.1659 88.4289 19.8897C87.3985 18.9574 87.0277 18.3147 87.2594 17.787L85.242 16.4686C84.7288 17.8167 85.3171 19.1017 87.437 21.0198C89.9032 23.2513 91.6052 23.7468 92.6063 22.6404C93.3705 21.7958 93.0279 20.7485 91.3391 19.0669L89.6528 17.4336L89.4157 17.1945C88.8805 16.6408 88.7704 16.4057 88.9389 16.2194C89.1758 15.9575 89.7473 16.2596 90.9213 17.3218ZM92.0471 25.3028L93.4184 27.2763L95.3733 25.9179C96.4863 25.1445 97.7419 25.5342 98.7363 26.9652C99.4383 27.9754 99.3468 28.8018 98.505 29.3868L96.0638 31.0831L97.4351 33.0567L100.269 31.0873C101.85 29.9889 102.019 28.4154 100.712 26.5354C99.8673 25.3194 98.6904 24.5838 97.5059 24.4361L100.433 22.4017L99.062 20.4282L92.0471 25.3028ZM99.8588 39.1468C101.054 42.2505 102.803 43.5297 104.77 42.7725C106.715 42.0236 107.168 39.872 105.981 36.7895C104.798 33.7177 103.011 32.4042 101.066 33.1531C99.121 33.9021 98.6761 36.075 99.8588 39.1468ZM101.496 38.5165C100.82 36.7627 100.962 35.8296 101.95 35.449C102.939 35.0684 103.669 35.6659 104.344 37.4197C105.02 39.1736 104.874 40.096 103.886 40.4766C102.897 40.8572 102.171 40.2704 101.496 38.5165ZM102.303 47.5615L102.494 49.66L106.738 51.4362L102.882 53.9364L103.072 56.0235L109.594 58.5764L109.369 56.1036L105.412 54.7131L109.026 52.3263L108.827 50.1371L104.796 48.5589L108.485 46.3712L108.25 43.7736L102.303 47.5615ZM103.208 60.1186L102.858 62.4962L105.011 62.813C106.318 63.0054 106.93 64.1661 106.665 65.969C106.602 66.3972 106.495 66.8075 106.357 67.1211L108.554 67.525C108.595 67.4043 108.65 67.1823 108.672 67.0358C108.897 65.5033 108.449 64.0904 107.54 63.1507L109.086 63.2055L109.406 61.0307L103.208 60.1186ZM100.161 72.0744C99.1361 74.9134 99.2254 76.4108 100.265 77.3552L101.481 75.227C101.133 74.8833 101.185 74.1028 101.714 72.6351C102.263 71.1137 102.879 70.4155 103.664 70.4204L101.069 77.6092C101.257 77.7255 101.425 77.7981 101.693 77.8947C103.546 78.5637 105.303 77.1513 106.359 74.2266C107.445 71.2161 106.902 68.9978 105.006 68.3134C103.056 67.6096 101.271 68.9996 100.161 72.0744ZM104.866 73.6998C104.359 75.1033 103.839 75.739 103.078 75.7671L104.841 70.8818C105.388 71.3816 105.392 72.2428 104.866 73.6998ZM95.2316 81.8645C93.5749 84.3875 93.3136 85.8646 94.1051 87.0247L95.7827 85.2376C95.5239 84.8224 95.7556 84.0753 96.6121 82.7709C97.4998 81.419 98.2605 80.8829 99.0232 81.0703L94.8284 87.4588C94.9843 87.6157 95.1304 87.7252 95.3684 87.8815C97.0155 88.963 99.0527 87.9979 100.759 85.3987C102.516 82.7233 102.503 80.4394 100.818 79.3329C99.0852 78.1951 97.0257 79.132 95.2316 81.8645ZM99.4297 84.5392C98.6108 85.7865 97.9572 86.2838 97.2106 86.1343L100.061 81.7928C100.476 82.4059 100.28 83.2444 99.4297 84.5392ZM90.0585 88.9963L91.6868 87.2288L97.9696 93.0166L96.3413 94.7841L90.0585 88.9963Z" fill="white"/>
</g>
<circle cx="56" cy="56" r="3.79661" fill="black"/>
<defs>
<clipPath id="clip0">
<rect width="110.102" height="108.203" fill="white" transform="translate(0 1.89819)"/>
</clipPath>
</defs>
</svg>
